HIERARCHY
ROOT Hips
{
 OFFSET 0.000000 0.000000 0.000000
 CHANNELS 6 Xposition Yposition Zposition Yrotation Xrotation Zrotation
 JOINT Chest
 {
  OFFSET 0.000000 10.388337 0.005184
  CHANNELS 3 Yrotation Xrotation Zrotation
  JOINT Chest2
  {
   OFFSET 0.000000 10.458247 -0.010579
   CHANNELS 3 Yrotation Xrotation Zrotation
   JOINT Chest3
   {
    OFFSET 0.000000 10.415828 0.000000
    CHANNELS 3 Yrotation Xrotation Zrotation
    JOINT Chest4
    {
     OFFSET 0.000000 10.405206 0.000000
     CHANNELS 3 Yrotation Xrotation Zrotation
     JOINT Neck
     {
      OFFSET 0.000000 15.720090 0.000000
      CHANNELS 3 Yrotation Xrotation Zrotation
      JOINT Head
      {
       OFFSET 0.000000 9.732643 -0.022378
       CHANNELS 3 Yrotation Xrotation Zrotation
       End Site
       {
        OFFSET 0.000000 18.603619 -0.011814
       }
      }
     }
     JOINT RightCollar
     {
      OFFSET -3.167735 10.388953 0.000000
      CHANNELS 3 Yrotation Xrotation Zrotation
      JOINT RightShoulder
      {
       OFFSET -14.584825 0.000000 0.000000
       CHANNELS 3 Yrotation Xrotation Zrotation
       JOINT RightElbow
       {
        OFFSET 0.000000 -31.921689 0.000000
        CHANNELS 3 Yrotation Xrotation Zrotation
        JOINT RightWrist
        {
         OFFSET 0.000000 -25.835217 0.000000
         CHANNELS 3 Yrotation Xrotation Zrotation
         End Site
         {
          OFFSET 0.000000 -19.128920 0.000000
         }
        }
       }
      }
     }
     JOINT LeftCollar
     {
      OFFSET 3.167735 10.388953 0.000000
      CHANNELS 3 Yrotation Xrotation Zrotation
      JOINT LeftShoulder
      {
       OFFSET 14.584825 0.000000 0.000000
       CHANNELS 3 Yrotation Xrotation Zrotation
       JOINT LeftElbow
       {
        OFFSET 0.000000 -31.921689 0.000000
        CHANNELS 3 Yrotation Xrotation Zrotation
        JOINT LeftWrist
        {
         OFFSET 0.000000 -25.835217 0.000000
         CHANNELS 3 Yrotation Xrotation Zrotation
         End Site
         {
          OFFSET 0.000000 -19.128920 0.000000
         }
        }
       }
      }
     }
    }
   }
  }
 }
 JOINT RightHip
 {
  OFFSET -8.403278 -0.025659 -0.002592
  CHANNELS 3 Yrotation Xrotation Zrotation
  JOINT RightKnee
  {
   OFFSET 0.000000 -44.040977 0.002477
   CHANNELS 3 Yrotation Xrotation Zrotation
   JOINT RightAnkle
   {
    OFFSET 0.000000 -42.951162 0.004189
    CHANNELS 3 Yrotation Xrotation Zrotation
    JOINT RightToe
    {
     OFFSET 0.000000 -5.494238 12.197485
     CHANNELS 3 Yrotation Xrotation Zrotation
     End Site
     {
      OFFSET 0.000000 -1.538716 6.371628
     }
    }
   }
  }
 }
 JOINT LeftHip
 {
  OFFSET 8.403278 -0.025659 -0.002592
  CHANNELS 3 Yrotation Xrotation Zrotation
  JOINT LeftKnee
  {
   OFFSET 0.000000 -44.040977 0.002477
   CHANNELS 3 Yrotation Xrotation Zrotation
   JOINT LeftAnkle
   {
    OFFSET 0.000000 -42.951162 0.004189
    CHANNELS 3 Yrotation Xrotation Zrotation
    JOINT LeftToe
    {
     OFFSET 0.000000 -5.494238 12.197485
     CHANNELS 3 Yrotation Xrotation Zrotation
     End Site
     {
      OFFSET 0.000000 -1.538716 6.371628
     }
    }
   }
  }
 }
}
MOTION
Frames: 11
Frame Time: 0.008333
0.000000 92.319940 0.000000 0.000000 -5.767889 0.000000 0.000000 11.653876 0.000000 0.000000 -5.885988 0.000000 0.000000 -0.000000 0.000000 0.000000 -0.000000 0.000000 0.000000 12.528808 0.000000 0.000000 0.711711 0.000000 0.000000 -0.000000 0.000000 0.000000 0.000000 -90.000000 0.000000 -2.309063 0.000000 0.000000 2.309063 0.000000 0.000000 -0.000000 0.000000 0.000000 -0.000000 90.000000 0.000000 -2.309063 0.000000 0.000000 2.309063 0.000000 0.000000 8.520374 0.000000 0.000000 1.905768 0.000000 -0.000000 -4.658254 0.000000 0.000000 -0.000000 0.000000 0.000000 8.520374 0.000000 0.000000 1.905768 0.000000 -0.000000 -4.658254 0.000000 0.000000 -0.000000 0.000000
-48.747973 91.581166 643.031937 94.022486 -2.194333 2.704466 3.132008 2.056445 -2.878481 0.114979 0.036239 -0.051653 0.204394 0.064500 -0.091781 3.968223 1.316726 -1.746963 2.121642 20.048777 3.147685 2.921575 1.417063 5.098417 3.406467 6.439839 1.198703 5.439498 4.122657 -6.017902 -11.211585 -9.681857 15.769944 -9.631271 5.121144 -3.122924 2.630598 4.773296 4.499484 1.724237 0.115569 5.880982 0.429477 -3.323142 -7.144473 0.880956 -1.770225 -2.017637 -3.390493 21.130330 -4.678037 -6.263324 -7.924100 0.188660 -21.922541 -7.305616 4.640481 1.040971 -1.242266 0.267063 2.702768 -7.377372 3.119598 17.737478 4.557467 1.571494 -19.351309 2.447574 -8.614299 0.420760 2.119177 0.250013
-48.642160 91.573290 642.894541 94.037720 -2.189472 2.845439 3.150747 2.161754 -3.023582 0.120827 0.036656 -0.055885 0.214650 0.065209 -0.099238 4.059518 1.302090 -1.842164 2.124758 20.034773 3.159069 2.923478 1.391034 5.118171 3.418093 6.366835 1.241195 5.374039 4.262232 -6.143340 -11.186143 -9.756951 15.935622 -9.572799 5.238002 -2.960072 2.617228 4.732409 4.456940 1.803620 -0.037594 5.888285 0.505624 -3.266553 -7.089115 0.929061 -1.836215 -1.933151 -3.565349 21.238130 -4.948799 -6.297073 -8.010197 0.176349 -21.777441 -7.282692 4.799461 0.969737 -1.268509 0.270216 2.488717 -7.344002 2.930230 17.795954 4.668642 1.568994 -19.129959 2.336733 -8.516389 0.408143 2.101853 0.242686
-48.523959 91.564292 642.746418 94.044798 -2.165413 2.956126 3.173216 2.243193 -3.142604 0.126449 0.037063 -0.060097 0.224498 0.065901 -0.106652 4.143799 1.289506 -1.934231 2.130144 20.018932 3.167225 2.930433 1.361530 5.131357 3.431142 6.284934 1.277571 5.300360 4.408780 -6.259029 -11.112361 -9.874138 16.095823 -9.489970 5.349788 -2.788578 2.611974 4.693391 4.422764 1.900336 -0.178540 5.892241 0.590431 -3.232580 -7.051362 0.969462 -1.925590 -1.832007 -3.735488 21.300528 -5.194506 -6.309832 -8.039005 0.157807 -21.667568 -7.269499 4.942011 0.960459 -1.309848 0.300761 2.257189 -7.348762 2.763154 17.864294 4.835613 1.580909 -18.858665 2.162220 -8.401819 0.402526 2.113090 0.235537
-48.402577 91.554728 642.591073 94.023362 -2.101871 3.050905 3.220226 2.281545 -3.247735 0.131622 0.037496 -0.064247 0.233549 0.066643 -0.113954 4.217334 1.280639 -2.023674 2.139990 20.001268 3.170515 2.946924 1.328520 5.134327 3.448060 6.199778 1.299134 5.223679 4.553197 -6.360947 -10.991792 -10.026593 16.250342 -9.395330 5.449725 -2.621584 2.616166 4.658295 4.397475 2.009460 -0.302560 5.885247 0.687540 -3.228604 -7.030561 1.007143 -2.032248 -1.718390 -3.889623 21.295613 -5.425758 -6.302269 -8.013021 0.133575 -21.580585 -7.299190 5.089603 0.957629 -1.330212 0.333206 2.045142 -7.413282 2.617630 17.946129 5.049680 1.605320 -18.653982 1.959948 -8.288984 0.394872 2.117279 0.224684
-48.278109 91.545233 642.433441 93.994257 -2.029042 3.130605 3.272874 2.308180 -3.336921 0.136340 0.038142 -0.068377 0.241792 0.067763 -0.121215 4.279625 1.280634 -2.111574 2.154533 19.978869 3.168480 2.973451 1.286591 5.126156 3.462837 6.106700 1.305607 5.152834 4.686575 -6.451500 -10.829387 -10.203291 16.398047 -9.302603 5.532818 -2.465892 2.625118 4.621455 4.380242 2.121980 -0.411597 5.859002 0.800878 -3.253588 -7.021038 1.048107 -2.150215 -1.595756 -4.049812 21.251902 -5.643782 -6.279627 -7.932989 0.105427 -21.518193 -7.356670 5.238230 0.965928 -1.344283 0.369213 1.839999 -7.510746 2.502445 18.045529 5.310247 1.640100 -18.569787 1.734904 -8.186317 0.382686 2.109021 0.209599
-48.152523 91.536047 642.278036 93.967201 -1.959960 3.193806 3.327734 2.339000 -3.408805 0.140995 0.039268 -0.072697 0.249911 0.069735 -0.128804 4.336274 1.295470 -2.200848 2.170976 19.947383 3.163532 3.004093 1.227743 5.112055 3.461230 5.995783 1.304051 5.097373 4.805400 -6.531122 -10.640670 -10.395651 16.539284 -9.225214 5.599721 -2.326884 2.626826 4.575888 4.373733 2.228239 -0.511525 5.811641 0.934524 -3.300878 -7.018268 1.095638 -2.276060 -1.468289 -4.224076 21.183420 -5.847345 -6.242578 -7.799343 0.071917 -21.449903 -7.440537 5.378428 0.999344 -1.358311 0.414754 1.635670 -7.628501 2.403721 18.161953 5.616062 1.681221 -18.467026 1.491774 -8.067833 0.370936 2.102658 0.193880
-48.027306 91.527138 642.127405 93.947881 -1.903017 3.242139 3.380721 2.383139 -3.465811 0.145791 0.040906 -0.077291 0.258266 0.072609 -0.136867 4.390833 1.324497 -2.292406 2.188864 19.906230 3.157253 3.037537 1.150921 5.095036 3.439911 5.869935 1.298914 5.064712 4.906690 -6.598734 -10.438368 -10.600899 16.674686 -9.169648 5.647355 -2.204868 2.616743 4.522912 4.378531 2.323974 -0.611103 5.751305 1.089100 -3.360758 -7.024844 1.149502 -2.407167 -1.339029 -4.420127 21.098095 -6.038825 -6.186146 -7.611584 0.031783 -21.367813 -7.552303 5.510073 1.056528 -1.373467 0.468944 1.421719 -7.762290 2.317003 18.295083 5.972237 1.729988 -18.301760 1.233699 -7.931376 0.360471 2.098438 0.180391
-47.903395 91.518284 641.981878 93.938154 -1.863724 3.282248 3.424458 2.443751 -3.514196 0.150422 0.042914 -0.081929 0.266323 0.076137 -0.145000 4.439773 1.363937 -2.382210 2.211755 19.858137 3.148321 3.080747 1.061105 5.071614 3.412277 5.740526 1.286795 5.057873 4.990026 -6.655115 -10.228291 -10.818486 16.806425 -9.135426 5.669846 -2.101735 2.606399 4.468576 4.387536 2.405862 -0.716728 5.686130 1.258849 -3.424701 -7.043329 1.210210 -2.539462 -1.208813 -4.638382 20.998708 -6.223762 -6.108148 -7.366146 -0.013853 -21.295230 -7.698281 5.645588 1.111779 -1.383226 0.521070 1.189364 -7.911999 2.244319 18.439309 6.386828 1.787893 -18.114415 0.965231 -7.788213 0.348381 2.083845 0.168028
-47.782793 91.509012 641.841679 93.935165 -1.837114 3.316834 3.459523 2.514405 -3.557686 0.154660 0.045175 -0.086397 0.273684 0.080113 -0.152829 4.480860 1.410813 -2.466517 2.240749 19.806076 3.136422 3.135918 0.963795 5.040875 3.388985 5.614786 1.263667 5.068934 5.058284 -6.700026 -10.016710 -11.045734 16.935332 -9.111670 5.659782 -2.016915 2.604196 4.416552 4.399542 2.469229 -0.830618 5.616095 1.435322 -3.483450 -7.074652 1.282656 -2.673937 -1.081229 -4.870554 20.876534 -6.403018 -6.012920 -7.057380 -0.063043 -21.241526 -7.885599 5.792505 1.148581 -1.381188 0.564502 0.942896 -8.084628 2.184925 18.582375 6.860823 1.857364 -17.921387 0.689040 -7.643317 0.333027 2.053908 0.154368
-47.669021 91.498609 641.708158 93.930877 -1.806561 3.340342 3.497685 2.579913 -3.593205 0.158608 0.047551 -0.090620 0.280536 0.084290 -0.160222 4.517224 1.460742 -2.543601 2.272724 19.752175 3.123058 3.196969 0.863025 5.006500 3.369181 5.497562 1.229262 5.089844 5.107286 -6.737032 -9.809718 -11.275586 17.063220 -9.085311 5.618113 -1.945739 2.607348 4.369111 4.419102 2.507551 -0.956163 5.539293 1.616292 -3.528226 -7.116322 1.369417 -2.813255 -0.967806 -5.104108 20.712929 -6.572792 -5.903518 -6.681030 -0.113897 -21.170006 -8.118322 5.943583 1.176292 -1.368894 0.603226 0.702601 -8.298979 2.145897 18.711751 7.393907 1.943344 -17.758016 0.402888 -7.505741 0.313060 2.008596 0.138636
